<svg xmlns="http://www.w3.org/2000/svg" viewBox="0 0 24 24" width="64" height="64">
  <radialGradient id="a" cx="6.601" cy="24.484" r="34.149" gradientUnits="userSpaceOnUse">
    <stop offset="0" stop-color="#fd5"></stop>
    <stop offset=".1" stop-color="#fd5"></stop>
    <stop offset=".5" stop-color="#ff543e"></stop>
    <stop offset="1" stop-color="#c837ab"></stop>
  </radialGradient>
  <radialGradient id="b" cx="3.395" cy="17.573" r="28.17" gradientUnits="userSpaceOnUse">
    <stop offset="0" stop-color="#3771c8"></stop>
    <stop offset=".128" stop-color="#3771c8"></stop>
    <stop offset="1" stop-color="#60f" stop-opacity="0"></stop>
  </radialGradient>
  <path fill="url(#a)" d="M12 2c-2.715 0-3.055.012-4.121.06-1.065.049-1.791.218-2.428.465a4.883 4.883 0 0 0-1.771 1.153A4.915 4.915 0 0 0 2.525 5.45c-.246.636-.416 1.363-.465 2.428C2.012 8.945 2 9.285 2 12s.012 3.055.06 4.121c.049 1.066.218 1.791.465 2.428a4.885 4.885 0 0 0 1.153 1.771 4.906 4.906 0 0 0 1.772 1.153c.637.247 1.363.416 2.428.465 1.066.048 1.405.06 4.121.06s3.055-.012 4.121-.06c1.066-.049 1.792-.218 2.428-.465a4.899 4.899 0 0 0 1.772-1.153 4.91 4.91 0 0 0 1.153-1.772c.247-.637.416-1.362.465-2.428.048-1.066.06-1.405.06-4.121s-.012-3.055-.06-4.121c-.049-1.066-.218-1.791-.465-2.428a4.897 4.897 0 0 0-1.153-1.772 4.918 4.918 0 0 0-1.772-1.153c-.637-.247-1.362-.416-2.428-.465C15.055 2.012 14.715 2 12 2zm0 1.802c2.67 0 2.986.01 4.04.058.974.045 1.504.207 1.857.345.467.181.8.398 1.15.748.35.35.566.682.748 1.149.137.353.3.883.344 1.857.048 1.055.058 1.37.058 4.04 0 2.672-.01 2.986-.058 4.041-.045.974-.207 1.504-.344 1.856-.182.468-.399.8-.748 1.15-.35.35-.683.566-1.15.748-.353.137-.883.3-1.857.344-1.054.048-1.37.058-4.04.058-2.672 0-2.986-.01-4.04-.058-.975-.045-1.504-.207-1.857-.344a3.108 3.108 0 0 1-1.15-.748 3.09 3.09 0 0 1-.747-1.15c-.138-.352-.3-.882-.345-1.856-.047-1.055-.058-1.37-.058-4.041 0-2.67.01-2.985.058-4.04.045-.974.207-1.504.345-1.857.18-.467.397-.8.747-1.149a3.09 3.09 0 0 1 1.15-.748c.352-.138.882-.3 1.856-.345 1.055-.047 1.37-.058 4.04-.058"/>
  <path fill="url(#b)" d="M12 2c-2.715 0-3.055.012-4.121.06-1.065.049-1.791.218-2.428.465a4.883 4.883 0 0 0-1.771 1.153A4.915 4.915 0 0 0 2.525 5.45c-.246.636-.416 1.363-.465 2.428C2.012 8.945 2 9.285 2 12s.012 3.055.06 4.121c.049 1.066.218 1.791.465 2.428a4.885 4.885 0 0 0 1.153 1.771 4.906 4.906 0 0 0 1.772 1.153c.637.247 1.363.416 2.428.465 1.066.048 1.405.06 4.121.06s3.055-.012 4.121-.06c1.066-.049 1.792-.218 2.428-.465a4.899 4.899 0 0 0 1.772-1.153 4.91 4.91 0 0 0 1.153-1.772c.247-.637.416-1.362.465-2.428.048-1.066.06-1.405.06-4.121s-.012-3.055-.06-4.121c-.049-1.066-.218-1.791-.465-2.428a4.897 4.897 0 0 0-1.153-1.772 4.918 4.918 0 0 0-1.772-1.153c-.637-.247-1.362-.416-2.428-.465C15.055 2.012 14.715 2 12 2zm0 1.802c2.67 0 2.986.01 4.04.058.974.045 1.504.207 1.857.345.467.181.8.398 1.15.748.35.35.566.682.748 1.149.137.353.3.883.344 1.857.048 1.055.058 1.37.058 4.04 0 2.672-.01 2.986-.058 4.041-.045.974-.207 1.504-.344 1.856-.182.468-.399.8-.748 1.15-.35.35-.683.566-1.15.748-.353.137-.883.3-1.857.344-1.054.048-1.37.058-4.04.058-2.672 0-2.986-.01-4.04-.058-.975-.045-1.504-.207-1.857-.344a3.108 3.108 0 0 1-1.15-.748 3.09 3.09 0 0 1-.747-1.15c-.138-.352-.3-.882-.345-1.856-.047-1.055-.058-1.37-.058-4.041 0-2.67.01-2.985.058-4.04.045-.974.207-1.504.345-1.857.18-.467.397-.8.747-1.149a3.09 3.09 0 0 1 1.15-.748c.352-.138.882-.3 1.856-.345 1.055-.047 1.37-.058 4.04-.058"/>
  <path fill="#fff" d="M12 15.333a3.333 3.333 0 1 1 0-6.666 3.333 3.333 0 0 1 0 6.666zm0-8.469a5.135 5.135 0 1 0 0 10.27 5.135 5.135 0 0 0 0-10.27zm6.538-.203a1.2 1.2 0 1 1-2.4 0 1.2 1.2 0 0 1 2.4 0z"/>
</svg>