<svg width="175" height="26" viewBox="0 0 175 26" fill="none" xmlns="http://www.w3.org/2000/svg">
  <path d="M16.7354 4.76837L25.9999 24H21.0927L14.3381 9.13605L7.58341 24H2.67627L11.9408 4.76837H16.7354Z" fill="#1E88E5"/>
  <path d="M24.1646 24H19.5699V4.76837H24.1646V24Z" fill="#1E88E5"/>
  <path d="M35.6245 24.3841C33.7892 24.3841 32.1832 24.0128 30.8067 23.2702C29.4302 22.5138 28.3648 21.4484 27.6084 20.0719C26.8659 18.6954 26.4946 17.0893 26.4946 15.2541C26.4946 13.4189 26.8659 11.8129 27.6084 10.4364C28.3648 9.04598 29.4302 7.9806 30.8067 7.24025C32.1832 6.48397 33.7892 6.10583 35.6245 6.10583C37.4598 6.10583 39.0658 6.48397 40.4423 7.24025C41.8327 7.9806 42.9051 9.04598 43.6615 10.4364C44.418 11.8129 44.7962 13.4189 44.7962 15.2541C44.7962 17.0893 44.418 18.6954 43.6615 20.0719C42.9051 21.4484 41.8327 22.5138 40.4423 23.2702C39.0658 24.0128 37.4598 24.3841 35.6245 24.3841ZM35.6245 20.5148C36.9053 20.5148 37.9429 20.035 38.7373 19.0755C39.5316 18.116 39.9288 16.8354 39.9288 15.2341C39.9288 13.6329 39.5316 12.3523 38.7373 11.3928C37.9429 10.4333 36.9053 9.95345 35.6245 9.95345C34.3298 9.95345 33.2851 10.4333 32.4908 11.3928C31.6965 12.3523 31.2993 13.6329 31.2993 15.2341C31.2993 16.8354 31.6965 18.116 32.4908 19.0755C33.2851 20.035 34.3298 20.5148 35.6245 20.5148Z" fill="white"/>
  <path d="M53.2225 24.3841C50.2127 24.3841 47.8416 23.5829 46.1091 21.9806C44.3767 20.3783 43.5105 18.0071 43.5105 14.8671V4.76837H48.1052V14.8671C48.1052 16.5996 48.5163 17.8733 49.3386 18.688C50.1748 19.5028 51.5035 19.9102 53.3246 19.9102C55.1459 19.9102 56.4678 19.5028 57.2902 18.688C58.1264 17.8733 58.5445 16.5996 58.5445 14.8671V4.76837H63.1391V14.8671C63.1391 18.0071 62.2661 20.3783 60.52 21.9806C58.774 23.5829 56.3961 24.3841 53.2225 24.3841Z" fill="white"/>
  <path d="M76.9983 24H72.4037V9.6274H67.2839V5.17267H82.118V9.6274H76.9983V24Z" fill="white"/>
  <path d="M90.5524 24.3841C88.7171 24.3841 87.1111 24.0128 85.7346 23.2702C84.3581 22.5138 83.2928 21.4484 82.5363 20.0719C81.7939 18.6954 81.4226 17.0893 81.4226 15.2541C81.4226 13.4189 81.7939 11.8129 82.5363 10.4364C83.2928 9.04598 84.3581 7.9806 85.7346 7.24025C87.1111 6.48397 88.7171 6.10583 90.5524 6.10583C92.3877 6.10583 93.9937 6.48397 95.3702 7.24025C96.7606 7.9806 97.833 9.04598 98.5894 10.4364C99.3459 11.8129 99.7241 13.4189 99.7241 15.2541C99.7241 17.0893 99.3459 18.6954 98.5894 20.0719C97.833 21.4484 96.7606 22.5138 95.3702 23.2702C93.9937 24.0128 92.3877 24.3841 90.5524 24.3841ZM90.5524 20.5148C91.8332 20.5148 92.8708 20.035 93.6651 19.0755C94.4595 18.116 94.8566 16.8354 94.8566 15.2341C94.8566 13.6329 94.4595 12.3523 93.6651 11.3928C92.8708 10.4333 91.8332 9.95345 90.5524 9.95345C89.2577 9.95345 88.213 10.4333 87.4187 11.3928C86.6244 12.3523 86.2272 13.6329 86.2272 15.2341C86.2272 16.8354 86.6244 18.116 87.4187 19.0755C88.213 20.035 89.2577 20.5148 90.5524 20.5148Z" fill="white"/>
  <path d="M108.996 24.3841C106.654 24.3841 104.807 23.7727 103.451 22.5499C102.102 21.3133 101.427 19.6088 101.427 17.4365V6.48987H106.022V17.2732C106.022 19.6944 107.013 20.9048 108.996 20.9048C110.953 20.9048 111.932 19.6944 111.932 17.2732V6.48987H116.526V17.4365C116.526 19.6088 115.845 21.3133 114.482 22.5499C113.132 23.7727 111.285 24.3841 108.996 24.3841Z" fill="white"/>
  <path d="M126.697 24.3841C124.895 24.3841 123.283 24.0128 121.86 23.2702C120.451 22.5277 119.339 21.4893 118.522 20.1536C117.706 18.818 117.308 17.2588 117.328 15.4763C117.348 13.6938 117.773 12.1424 118.603 10.8199C119.432 9.49745 120.557 8.46229 121.98 7.7198C123.402 6.97732 124.989 6.60608 126.737 6.60608C128.233 6.60608 129.609 6.89386 130.866 7.46937C132.121 8.04487 133.154 8.83126 133.963 9.82847L130.704 12.4812C130.088 11.8362 129.416 11.3564 128.687 11.0419C127.971 10.7275 127.229 10.5703 126.452 10.5703C124.952 10.5703 123.783 11.0502 122.943 12.01C122.102 12.9697 121.682 14.2504 121.682 15.8516C121.682 17.4528 122.098 18.7334 122.923 19.6932C123.763 20.653 124.937 21.1328 126.452 21.1328C127.202 21.1328 127.911 20.9652 128.584 20.6299C129.258 20.2807 129.952 19.7692 130.664 19.0954L133.862 21.8673C132.978 22.6655 131.868 23.3081 130.541 23.7959C129.224 24.1888 127.966 24.3841 126.697 24.3841Z" fill="white"/>
  <path d="M151.125 24H146.53V16.6085H139.001V24H134.406V4.76837H139.001V12.1146H146.53V4.76837H151.125V24Z" fill="white"/>
  <path d="M154.063 24V4.76837H158.658V24H154.063Z" fill="white"/>
  <path d="M167.524 24.3841C165.723 24.3841 164.11 24.0128 162.688 23.2702C161.278 22.5277 160.166 21.4893 159.35 20.1536C158.534 18.818 158.136 17.2588 158.156 15.4763C158.176 13.6938 158.6 12.1424 159.43 10.8199C160.26 9.49745 161.385 8.46229 162.807 7.7198C164.23 6.97732 165.816 6.60608 167.564 6.60608C169.06 6.60608 170.437 6.89386 171.693 7.46937C172.949 8.04487 173.982 8.83126 174.79 9.82847L171.531 12.4812C170.916 11.8362 170.243 11.3564 169.514 11.0419C168.799 10.7275 168.057 10.5703 167.279 10.5703C165.78 10.5703 164.61 11.0502 163.77 12.01C162.93 12.9697 162.51 14.2504 162.51 15.8516C162.51 17.4528 162.925 18.7334 163.75 19.6932C164.59 20.653 165.765 21.1328 167.279 21.1328C168.03 21.1328 168.739 20.9652 169.412 20.6299C170.086 20.2807 170.78 19.7692 171.491 19.0954L174.69 21.8673C173.805 22.6655 172.696 23.3081 171.369 23.7959C170.052 24.1888 168.794 24.3841 167.524 24.3841Z" fill="white"/>
</svg>