<svg xmlns="http://www.w3.org/2000/svg" width="64" height="64" viewBox="0 0 24 24" fill="none" stroke="currentColor" stroke-width="2" stroke-linecap="round" stroke-linejoin="round" class="lucide lucide-headphones">
  <path d="M3 14h2a2 2 0 0 1 2 2v2a2 2 0 0 1-2 2H5a2 2 0 0 1-2-2v-2Z"></path>
  <path d="M17 14h2a2 2 0 0 1 2 2v2a2 2 0 0 1-2 2h-2a2 2 0 0 1-2-2v-2a2 2 0 0 1 2-2Z"></path>
  <path d="M3 18v-6a9 9 0 0 1 18 0v6"></path>
  <text x="8.5" y="11" font-family="Arial, sans-serif" font-weight="bold" font-size="5" fill="currentColor">24/7</text>
</svg>